<mxfile host="app.diagrams.net" modified="2023-03-08T09:42:02.621Z" agent="5.0 (Windows)" etag="TCChbnpKIWDDiA7UX6xJ" version="20.8.23" type="github">
  <diagram name="Page-1" id="eYJQUpdrDzNWx56W8Muw">
    <mxGraphModel dx="1050" dy="489" grid="1" gridSize="10" guides="1" tooltips="1" connect="1" arrows="1" fold="1" page="1" pageScale="1" pageWidth="827" pageHeight="1169" math="0" shadow="0">
      <root>
        <mxCell id="0" />
        <mxCell id="1" parent="0" />
        <mxCell id="5Ch_lbpTE-NXvBexPUmm-2" value="User: sys" style="swimlane;whiteSpace=wrap;html=1;startSize=23;" vertex="1" parent="1">
          <mxGeometry x="80" y="40" width="360" height="470" as="geometry" />
        </mxCell>
        <mxCell id="5Ch_lbpTE-NXvBexPUmm-11" value="Payload Manager" style="rounded=0;whiteSpace=wrap;html=1;" vertex="1" parent="5Ch_lbpTE-NXvBexPUmm-2">
          <mxGeometry x="26" y="40" width="324" height="60" as="geometry" />
        </mxCell>
        <mxCell id="5Ch_lbpTE-NXvBexPUmm-22" style="edgeStyle=orthogonalEdgeStyle;rounded=0;orthogonalLoop=1;jettySize=auto;html=1;exitX=1;exitY=0.5;exitDx=0;exitDy=0;entryX=0;entryY=0.5;entryDx=0;entryDy=0;startArrow=classic;startFill=1;" edge="1" parent="5Ch_lbpTE-NXvBexPUmm-2" source="5Ch_lbpTE-NXvBexPUmm-12" target="5Ch_lbpTE-NXvBexPUmm-14">
          <mxGeometry relative="1" as="geometry" />
        </mxCell>
        <mxCell id="5Ch_lbpTE-NXvBexPUmm-12" value="Drivers" style="rounded=0;whiteSpace=wrap;html=1;" vertex="1" parent="5Ch_lbpTE-NXvBexPUmm-2">
          <mxGeometry x="118" y="370" width="120" height="60" as="geometry" />
        </mxCell>
        <mxCell id="5Ch_lbpTE-NXvBexPUmm-14" value="" style="html=1;rounded=0;" vertex="1" parent="5Ch_lbpTE-NXvBexPUmm-2">
          <mxGeometry x="282" y="385" width="30" height="30" as="geometry" />
        </mxCell>
        <mxCell id="5Ch_lbpTE-NXvBexPUmm-15" value="" style="endArrow=none;html=1;rounded=0;align=center;verticalAlign=top;endFill=0;labelBackgroundColor=none;endSize=2;" edge="1" source="5Ch_lbpTE-NXvBexPUmm-14" parent="5Ch_lbpTE-NXvBexPUmm-2">
          <mxGeometry relative="1" as="geometry">
            <mxPoint x="334" y="400" as="targetPoint" />
          </mxGeometry>
        </mxCell>
        <mxCell id="5Ch_lbpTE-NXvBexPUmm-16" value="" style="ellipse;html=1;fontSize=11;align=center;fillColor=none;points=[];aspect=fixed;resizable=0;verticalAlign=bottom;labelPosition=center;verticalLabelPosition=top;flipH=1;" vertex="1" parent="5Ch_lbpTE-NXvBexPUmm-2">
          <mxGeometry x="334" y="396" width="8" height="8" as="geometry" />
        </mxCell>
        <mxCell id="5Ch_lbpTE-NXvBexPUmm-26" style="edgeStyle=orthogonalEdgeStyle;rounded=0;orthogonalLoop=1;jettySize=auto;html=1;exitX=1;exitY=0.5;exitDx=0;exitDy=0;entryX=0;entryY=0.5;entryDx=0;entryDy=0;startArrow=classic;startFill=1;" edge="1" parent="5Ch_lbpTE-NXvBexPUmm-2" source="5Ch_lbpTE-NXvBexPUmm-23" target="5Ch_lbpTE-NXvBexPUmm-12">
          <mxGeometry relative="1" as="geometry" />
        </mxCell>
        <mxCell id="5Ch_lbpTE-NXvBexPUmm-23" value="" style="html=1;rounded=0;" vertex="1" parent="5Ch_lbpTE-NXvBexPUmm-2">
          <mxGeometry x="48" y="385" width="30" height="30" as="geometry" />
        </mxCell>
        <mxCell id="5Ch_lbpTE-NXvBexPUmm-24" value="" style="endArrow=none;html=1;rounded=0;align=center;verticalAlign=top;endFill=0;labelBackgroundColor=none;endSize=2;startArrow=none;entryX=0;entryY=0.5;entryDx=0;entryDy=0;" edge="1" parent="5Ch_lbpTE-NXvBexPUmm-2" source="5Ch_lbpTE-NXvBexPUmm-25" target="5Ch_lbpTE-NXvBexPUmm-23">
          <mxGeometry relative="1" as="geometry">
            <mxPoint x="-2" y="400" as="targetPoint" />
          </mxGeometry>
        </mxCell>
        <mxCell id="5Ch_lbpTE-NXvBexPUmm-25" value="" style="ellipse;html=1;fontSize=11;align=center;fillColor=none;points=[];aspect=fixed;resizable=0;verticalAlign=bottom;labelPosition=center;verticalLabelPosition=top;flipH=1;" vertex="1" parent="5Ch_lbpTE-NXvBexPUmm-2">
          <mxGeometry x="18" y="396" width="8" height="8" as="geometry" />
        </mxCell>
        <mxCell id="5Ch_lbpTE-NXvBexPUmm-31" style="edgeStyle=orthogonalEdgeStyle;rounded=0;orthogonalLoop=1;jettySize=auto;html=1;exitX=1;exitY=0.5;exitDx=0;exitDy=0;startArrow=none;startFill=0;" edge="1" parent="5Ch_lbpTE-NXvBexPUmm-2" source="5Ch_lbpTE-NXvBexPUmm-30">
          <mxGeometry relative="1" as="geometry">
            <mxPoint x="420" y="400" as="targetPoint" />
          </mxGeometry>
        </mxCell>
        <mxCell id="5Ch_lbpTE-NXvBexPUmm-30" value="Socat service" style="rounded=0;whiteSpace=wrap;html=1;" vertex="1" parent="5Ch_lbpTE-NXvBexPUmm-2">
          <mxGeometry x="210" y="260" width="120" height="60" as="geometry" />
        </mxCell>
        <mxCell id="5Ch_lbpTE-NXvBexPUmm-33" value="Driver Bus1" style="text;html=1;strokeColor=none;fillColor=none;align=center;verticalAlign=middle;whiteSpace=wrap;rounded=0;" vertex="1" parent="5Ch_lbpTE-NXvBexPUmm-2">
          <mxGeometry x="256" y="420" width="82" height="30" as="geometry" />
        </mxCell>
        <mxCell id="5Ch_lbpTE-NXvBexPUmm-34" value="Bus1" style="text;html=1;strokeColor=none;fillColor=none;align=center;verticalAlign=middle;whiteSpace=wrap;rounded=0;" vertex="1" parent="5Ch_lbpTE-NXvBexPUmm-2">
          <mxGeometry x="22" y="420" width="82" height="30" as="geometry" />
        </mxCell>
        <mxCell id="5Ch_lbpTE-NXvBexPUmm-36" value="Resources Manager" style="rounded=0;whiteSpace=wrap;html=1;" vertex="1" parent="5Ch_lbpTE-NXvBexPUmm-2">
          <mxGeometry x="210" y="120" width="140" height="60" as="geometry" />
        </mxCell>
        <mxCell id="5Ch_lbpTE-NXvBexPUmm-4" value="User: pay1" style="swimlane;whiteSpace=wrap;html=1;startSize=23;" vertex="1" parent="1">
          <mxGeometry x="470" y="40" width="360" height="470" as="geometry" />
        </mxCell>
        <mxCell id="5Ch_lbpTE-NXvBexPUmm-5" value="Customer Software" style="rounded=0;whiteSpace=wrap;html=1;" vertex="1" parent="5Ch_lbpTE-NXvBexPUmm-4">
          <mxGeometry x="30" y="40" width="300" height="60" as="geometry" />
        </mxCell>
        <mxCell id="5Ch_lbpTE-NXvBexPUmm-9" value="HAL" style="rounded=0;whiteSpace=wrap;html=1;" vertex="1" parent="5Ch_lbpTE-NXvBexPUmm-4">
          <mxGeometry x="180" y="120" width="150" height="60" as="geometry" />
        </mxCell>
        <mxCell id="5Ch_lbpTE-NXvBexPUmm-21" style="edgeStyle=orthogonalEdgeStyle;rounded=0;orthogonalLoop=1;jettySize=auto;html=1;exitX=0.5;exitY=1;exitDx=0;exitDy=0;entryX=1;entryY=0.5;entryDx=0;entryDy=0;startArrow=classic;startFill=1;" edge="1" parent="5Ch_lbpTE-NXvBexPUmm-4" source="5Ch_lbpTE-NXvBexPUmm-10" target="5Ch_lbpTE-NXvBexPUmm-17">
          <mxGeometry relative="1" as="geometry" />
        </mxCell>
        <mxCell id="5Ch_lbpTE-NXvBexPUmm-10" value="Hardware Ports" style="rounded=0;whiteSpace=wrap;html=1;" vertex="1" parent="5Ch_lbpTE-NXvBexPUmm-4">
          <mxGeometry x="180" y="205" width="150" height="60" as="geometry" />
        </mxCell>
        <mxCell id="5Ch_lbpTE-NXvBexPUmm-17" value="" style="html=1;rounded=0;" vertex="1" parent="5Ch_lbpTE-NXvBexPUmm-4">
          <mxGeometry x="190" y="386" width="30" height="30" as="geometry" />
        </mxCell>
        <mxCell id="5Ch_lbpTE-NXvBexPUmm-18" value="" style="endArrow=none;html=1;rounded=0;align=center;verticalAlign=top;endFill=0;labelBackgroundColor=none;endSize=2;startArrow=none;entryX=0;entryY=0.5;entryDx=0;entryDy=0;" edge="1" source="5Ch_lbpTE-NXvBexPUmm-19" target="5Ch_lbpTE-NXvBexPUmm-17" parent="5Ch_lbpTE-NXvBexPUmm-4">
          <mxGeometry relative="1" as="geometry">
            <mxPoint x="140" y="401" as="targetPoint" />
          </mxGeometry>
        </mxCell>
        <mxCell id="5Ch_lbpTE-NXvBexPUmm-19" value="" style="ellipse;html=1;fontSize=11;align=center;fillColor=none;points=[];aspect=fixed;resizable=0;verticalAlign=bottom;labelPosition=center;verticalLabelPosition=top;flipH=1;" vertex="1" parent="5Ch_lbpTE-NXvBexPUmm-4">
          <mxGeometry x="160" y="397" width="8" height="8" as="geometry" />
        </mxCell>
        <mxCell id="5Ch_lbpTE-NXvBexPUmm-32" value="Pay1: Bus1" style="text;html=1;strokeColor=none;fillColor=none;align=center;verticalAlign=middle;whiteSpace=wrap;rounded=0;" vertex="1" parent="5Ch_lbpTE-NXvBexPUmm-4">
          <mxGeometry x="164" y="420" width="82" height="30" as="geometry" />
        </mxCell>
        <mxCell id="5Ch_lbpTE-NXvBexPUmm-35" value="Resource Request" style="rounded=0;whiteSpace=wrap;html=1;" vertex="1" parent="5Ch_lbpTE-NXvBexPUmm-4">
          <mxGeometry x="30" y="120" width="140" height="60" as="geometry" />
        </mxCell>
        <mxCell id="5Ch_lbpTE-NXvBexPUmm-28" value="" style="endArrow=none;html=1;rounded=0;exitX=0;exitY=0.75;exitDx=0;exitDy=0;exitPerimeter=0;" edge="1" parent="1" source="5Ch_lbpTE-NXvBexPUmm-16">
          <mxGeometry width="50" height="50" relative="1" as="geometry">
            <mxPoint x="510" y="470" as="sourcePoint" />
            <mxPoint x="634" y="442" as="targetPoint" />
          </mxGeometry>
        </mxCell>
        <mxCell id="5Ch_lbpTE-NXvBexPUmm-29" value="Socat link" style="edgeLabel;html=1;align=center;verticalAlign=middle;resizable=0;points=[];" vertex="1" connectable="0" parent="5Ch_lbpTE-NXvBexPUmm-28">
          <mxGeometry x="-0.1792" y="-1" relative="1" as="geometry">
            <mxPoint as="offset" />
          </mxGeometry>
        </mxCell>
        <mxCell id="5Ch_lbpTE-NXvBexPUmm-37" style="edgeStyle=orthogonalEdgeStyle;rounded=0;orthogonalLoop=1;jettySize=auto;html=1;exitX=0;exitY=0.5;exitDx=0;exitDy=0;entryX=1;entryY=0.5;entryDx=0;entryDy=0;startArrow=classic;startFill=1;" edge="1" parent="1" source="5Ch_lbpTE-NXvBexPUmm-35" target="5Ch_lbpTE-NXvBexPUmm-36">
          <mxGeometry relative="1" as="geometry" />
        </mxCell>
      </root>
    </mxGraphModel>
  </diagram>
</mxfile>
